<?xml version="1.0" encoding="UTF-8" standalone="no"?>
<!DOCTYPE svg PUBLIC "-//W3C//DTD SVG 1.1//EN"
 "http://www.w3.org/Graphics/SVG/1.1/DTD/svg11.dtd">
<!-- Generated by graphviz version 2.42.4 (0)
 -->
<!-- Title: G Pages: 1 -->
<svg width="2015pt" height="233pt"
 viewBox="0.00 0.00 2014.80 232.80" xmlns="http://www.w3.org/2000/svg" xmlns:xlink="http://www.w3.org/1999/xlink">
<g id="graph0" class="graph" transform="scale(1 1) rotate(0) translate(14.4 218.4)">
<title>G</title>
<text text-anchor="middle" x="993" y="-184" font-family="Arial" font-size="20.00">Mutación, persistencia y exportación</text>
<!-- ui -->
<g id="node1" class="node">
<title>ui</title>
<path fill="#eff6ff" stroke="#2563eb" d="M100,-106C100,-106 12,-106 12,-106 6,-106 0,-100 0,-94 0,-94 0,-82 0,-82 0,-76 6,-70 12,-70 12,-70 100,-70 100,-70 106,-70 112,-76 112,-82 112,-82 112,-94 112,-94 112,-100 106,-106 100,-106"/>
<text text-anchor="middle" x="56" y="-85.2" font-family="Arial" font-size="11.00">Editor Component</text>
</g>
<!-- storeui -->
<g id="node2" class="node">
<title>storeui</title>
<path fill="#eff6ff" stroke="#2563eb" d="M267,-107C267,-107 191,-107 191,-107 185,-107 179,-101 179,-95 179,-95 179,-81 179,-81 179,-75 185,-69 191,-69 191,-69 267,-69 267,-69 273,-69 279,-75 279,-81 279,-81 279,-95 279,-95 279,-101 273,-107 267,-107"/>
<text text-anchor="middle" x="229" y="-91.2" font-family="Arial" font-size="11.00">EditorStore</text>
<text text-anchor="middle" x="229" y="-79.2" font-family="Arial" font-size="11.00">FIFO + pending</text>
</g>
<!-- ui&#45;&gt;storeui -->
<g id="edge1" class="edge">
<title>ui&#45;&gt;storeui</title>
<path fill="none" stroke="#475569" d="M112.05,-88C131.09,-88 152.46,-88 171.61,-88"/>
<polygon fill="#475569" stroke="#475569" points="171.83,-90.45 178.83,-88 171.83,-85.55 171.83,-90.45"/>
<text text-anchor="middle" x="145.5" y="-90.8" font-family="Arial" font-size="9.00">intent</text>
</g>
<!-- usecase -->
<g id="node3" class="node">
<title>usecase</title>
<path fill="#eff6ff" stroke="#2563eb" d="M467,-106C467,-106 418,-106 418,-106 412,-106 406,-100 406,-94 406,-94 406,-82 406,-82 406,-76 412,-70 418,-70 418,-70 467,-70 467,-70 473,-70 479,-76 479,-82 479,-82 479,-94 479,-94 479,-100 473,-106 467,-106"/>
<text text-anchor="middle" x="442.5" y="-85.2" font-family="Arial" font-size="11.00">Use Case</text>
</g>
<!-- storeui&#45;&gt;usecase -->
<g id="edge2" class="edge">
<title>storeui&#45;&gt;usecase</title>
<path fill="none" stroke="#475569" d="M279.05,-88C315.28,-88 364.12,-88 398.75,-88"/>
<polygon fill="#475569" stroke="#475569" points="398.92,-90.45 405.92,-88 398.92,-85.55 398.92,-90.45"/>
<text text-anchor="middle" x="342.5" y="-90.8" font-family="Arial" font-size="9.00">serialized command</text>
</g>
<!-- domain -->
<g id="node4" class="node">
<title>domain</title>
<path fill="#eff6ff" stroke="#2563eb" d="M699,-107C699,-107 612,-107 612,-107 606,-107 600,-101 600,-95 600,-95 600,-81 600,-81 600,-75 606,-69 612,-69 612,-69 699,-69 699,-69 705,-69 711,-75 711,-81 711,-81 711,-95 711,-95 711,-101 705,-107 699,-107"/>
<text text-anchor="middle" x="655.5" y="-91.2" font-family="Arial" font-size="11.00">Gallery Aggregate</text>
<text text-anchor="middle" x="655.5" y="-79.2" font-family="Arial" font-size="11.00">new snapshot</text>
</g>
<!-- usecase&#45;&gt;domain -->
<g id="edge3" class="edge">
<title>usecase&#45;&gt;domain</title>
<path fill="none" stroke="#475569" d="M479.29,-88C510.27,-88 555.75,-88 592.61,-88"/>
<polygon fill="#475569" stroke="#475569" points="592.86,-90.45 599.86,-88 592.86,-85.55 592.86,-90.45"/>
<text text-anchor="middle" x="539.5" y="-90.8" font-family="Arial" font-size="9.00">rehydrate + mutate</text>
</g>
<!-- planner -->
<g id="node5" class="node">
<title>planner</title>
<path fill="#eff6ff" stroke="#2563eb" d="M922,-107C922,-107 843,-107 843,-107 837,-107 831,-101 831,-95 831,-95 831,-81 831,-81 831,-75 837,-69 843,-69 843,-69 922,-69 922,-69 928,-69 934,-75 934,-81 934,-81 934,-95 934,-95 934,-101 928,-107 922,-107"/>
<text text-anchor="middle" x="882.5" y="-91.2" font-family="Arial" font-size="11.00">Commit Planner</text>
<text text-anchor="middle" x="882.5" y="-79.2" font-family="Arial" font-size="11.00">before / after</text>
</g>
<!-- domain&#45;&gt;planner -->
<g id="edge4" class="edge">
<title>domain&#45;&gt;planner</title>
<path fill="none" stroke="#475569" d="M711.25,-88C745.26,-88 788.92,-88 823.51,-88"/>
<polygon fill="#475569" stroke="#475569" points="823.75,-90.45 830.75,-88 823.75,-85.55 823.75,-90.45"/>
<text text-anchor="middle" x="771" y="-90.8" font-family="Arial" font-size="9.00">snapshot</text>
</g>
<!-- commit -->
<g id="node6" class="node">
<title>commit</title>
<path fill="#eff6ff" stroke="#2563eb" d="M1115,-107C1115,-107 991,-107 991,-107 985,-107 979,-101 979,-95 979,-95 979,-81 979,-81 979,-75 985,-69 991,-69 991,-69 1115,-69 1115,-69 1121,-69 1127,-75 1127,-81 1127,-81 1127,-95 1127,-95 1127,-101 1121,-107 1115,-107"/>
<text text-anchor="middle" x="1053" y="-91.2" font-family="Arial" font-size="11.00">GalleryCommit</text>
<text text-anchor="middle" x="1053" y="-79.2" font-family="Arial" font-size="11.00">snapshot + puts + deletes</text>
</g>
<!-- planner&#45;&gt;commit -->
<g id="edge5" class="edge">
<title>planner&#45;&gt;commit</title>
<path fill="none" stroke="#475569" d="M934.06,-88C945.92,-88 958.84,-88 971.65,-88"/>
<polygon fill="#475569" stroke="#475569" points="971.74,-90.45 978.74,-88 971.74,-85.55 971.74,-90.45"/>
</g>
<!-- idb -->
<g id="node7" class="node">
<title>idb</title>
<path fill="#f8fafc" stroke="#64748b" d="M1371,-102.73C1371,-104.53 1340.97,-106 1304,-106 1267.03,-106 1237,-104.53 1237,-102.73 1237,-102.73 1237,-73.27 1237,-73.27 1237,-71.47 1267.03,-70 1304,-70 1340.97,-70 1371,-71.47 1371,-73.27 1371,-73.27 1371,-102.73 1371,-102.73"/>
<path fill="none" stroke="#64748b" d="M1371,-102.73C1371,-100.92 1340.97,-99.45 1304,-99.45 1267.03,-99.45 1237,-100.92 1237,-102.73"/>
<text text-anchor="middle" x="1304" y="-85.2" font-family="Arial" font-size="11.00">IndexedDB transaction</text>
</g>
<!-- commit&#45;&gt;idb -->
<g id="edge6" class="edge">
<title>commit&#45;&gt;idb</title>
<path fill="none" stroke="#475569" d="M1127.03,-88C1159.31,-88 1197.2,-88 1229.54,-88"/>
<polygon fill="#475569" stroke="#475569" points="1229.77,-90.45 1236.77,-88 1229.77,-85.55 1229.77,-90.45"/>
<text text-anchor="middle" x="1182" y="-90.8" font-family="Arial" font-size="9.00">one readwrite tx</text>
</g>
<!-- idb&#45;&gt;storeui -->
<g id="edge9" class="edge">
<title>idb&#45;&gt;storeui</title>
<path fill="none" stroke="#475569" d="M1249.7,-70.84C1182.29,-50.7 1062.3,-20 957,-20 654.5,-20 654.5,-20 654.5,-20 521.19,-20 367.26,-53.1 286.38,-73.11"/>
<polygon fill="#475569" stroke="#475569" points="285.46,-70.82 279.26,-74.89 286.64,-75.57 285.46,-70.82"/>
<text text-anchor="middle" x="771" y="-22.8" font-family="Arial" font-size="9.00">success → refresh</text>
</g>
<!-- metadata -->
<g id="node8" class="node">
<title>metadata</title>
<polygon fill="#ffffff" stroke="#64748b" points="1580,-174 1577,-178 1556,-178 1553,-174 1479,-174 1479,-138 1580,-138 1580,-174"/>
<text text-anchor="middle" x="1529.5" y="-153.2" font-family="Arial" font-size="11.00">galleries + meta</text>
</g>
<!-- idb&#45;&gt;metadata -->
<g id="edge7" class="edge">
<title>idb&#45;&gt;metadata</title>
<path fill="none" stroke="#475569" d="M1361.11,-105.07C1394.91,-115.36 1437.83,-128.41 1471.75,-138.73"/>
<polygon fill="#475569" stroke="#475569" points="1471.43,-141.2 1478.84,-140.89 1472.86,-136.51 1471.43,-141.2"/>
</g>
<!-- blobs -->
<g id="node9" class="node">
<title>blobs</title>
<polygon fill="#ffffff" stroke="#64748b" points="1573.5,-106 1570.5,-110 1549.5,-110 1546.5,-106 1485.5,-106 1485.5,-70 1573.5,-70 1573.5,-106"/>
<text text-anchor="middle" x="1529.5" y="-85.2" font-family="Arial" font-size="11.00">assets (Blob)</text>
</g>
<!-- idb&#45;&gt;blobs -->
<g id="edge8" class="edge">
<title>idb&#45;&gt;blobs</title>
<path fill="none" stroke="#475569" d="M1371.15,-88C1405.5,-88 1446.78,-88 1478.44,-88"/>
<polygon fill="#475569" stroke="#475569" points="1478.45,-90.45 1485.45,-88 1478.45,-85.55 1478.45,-90.45"/>
</g>
<!-- archive -->
<g id="node10" class="node">
<title>archive</title>
<path fill="#eff6ff" stroke="#2563eb" d="M1593,-38C1593,-38 1466,-38 1466,-38 1460,-38 1454,-32 1454,-26 1454,-26 1454,-12 1454,-12 1454,-6 1460,0 1466,0 1466,0 1593,0 1593,0 1599,0 1605,-6 1605,-12 1605,-12 1605,-26 1605,-26 1605,-32 1599,-38 1593,-38"/>
<text text-anchor="middle" x="1529.5" y="-22.2" font-family="Arial" font-size="11.00">Archive Adapter</text>
<text text-anchor="middle" x="1529.5" y="-10.2" font-family="Arial" font-size="11.00">manifest + JSON + assets</text>
</g>
<!-- idb&#45;&gt;archive -->
<g id="edge10" class="edge">
<title>idb&#45;&gt;archive</title>
<path fill="none" stroke="#475569" stroke-dasharray="5,2" d="M1360.53,-70.86C1390.71,-61.54 1428.28,-49.94 1460.23,-40.08"/>
<polygon fill="#475569" stroke="#475569" points="1460.99,-42.41 1466.96,-38 1459.54,-37.72 1460.99,-42.41"/>
<text text-anchor="middle" x="1412.5" y="-61.8" font-family="Arial" font-size="9.00">read only</text>
</g>
<!-- zip -->
<g id="node11" class="node">
<title>zip</title>
<polygon fill="#fffbeb" stroke="#d97706" points="1818,-37 1710,-37 1710,-1 1824,-1 1824,-31 1818,-37"/>
<polyline fill="none" stroke="#d97706" points="1818,-37 1818,-31 "/>
<polyline fill="none" stroke="#d97706" points="1824,-31 1818,-31 "/>
<text text-anchor="middle" x="1767" y="-16.2" font-family="Arial" font-size="11.00">.t3room / .t3gallery</text>
</g>
<!-- archive&#45;&gt;zip -->
<g id="edge11" class="edge">
<title>archive&#45;&gt;zip</title>
<path fill="none" stroke="#475569" d="M1605.01,-19C1636.45,-19 1672.66,-19 1702.77,-19"/>
<polygon fill="#475569" stroke="#475569" points="1702.89,-21.45 1709.89,-19 1702.89,-16.55 1702.89,-21.45"/>
<text text-anchor="middle" x="1657.5" y="-21.8" font-family="Arial" font-size="9.00">SHA&#45;256 + ZIP</text>
</g>
<!-- download -->
<g id="node12" class="node">
<title>download</title>
<path fill="#eff6ff" stroke="#2563eb" d="M1974,-37C1974,-37 1881,-37 1881,-37 1875,-37 1869,-31 1869,-25 1869,-25 1869,-13 1869,-13 1869,-7 1875,-1 1881,-1 1881,-1 1974,-1 1974,-1 1980,-1 1986,-7 1986,-13 1986,-13 1986,-25 1986,-25 1986,-31 1980,-37 1974,-37"/>
<text text-anchor="middle" x="1927.5" y="-16.2" font-family="Arial" font-size="11.00">Browser Download</text>
</g>
<!-- zip&#45;&gt;download -->
<g id="edge12" class="edge">
<title>zip&#45;&gt;download</title>
<path fill="none" stroke="#475569" d="M1824.33,-19C1836.38,-19 1849.2,-19 1861.55,-19"/>
<polygon fill="#475569" stroke="#475569" points="1861.75,-21.45 1868.75,-19 1861.75,-16.55 1861.75,-21.45"/>
</g>
</g>
</svg>
